# Blender 3.3.1
# www.blender.org
usemtl track_tucson_modif#flipv=1
v -0.975000 0.000000 0.100000
v -0.975000 0.120000 0.100000
v -0.975000 0.000000 -0.100000
v -0.975000 0.120000 -0.100000
v 0.975000 0.000000 0.100000
v 0.975000 0.120000 0.100000
v 0.975000 0.000000 -0.100000
v 0.975000 0.120000 -0.100000
v 0.660000 0.122000 0.300000
v 0.760000 0.122000 0.300000
v 0.660000 0.122000 -0.300000
v 0.760000 0.122000 -0.300000
v 0.700000 0.240000 0.300000
v 0.700000 0.120000 0.300000
v 0.700000 0.240000 -0.300000
v 0.700000 0.120000 -0.300000
v 0.720000 0.240000 0.300000
v 0.720000 0.120000 0.300000
v 0.720000 0.240000 -0.300000
v 0.720000 0.120000 -0.300000
v 0.735000 0.240000 0.300000
v 0.685000 0.240000 0.300000
v 0.735000 0.240000 -0.300000
v 0.685000 0.240000 -0.300000
v -0.760000 0.122000 0.300000
v -0.660000 0.122000 0.300000
v -0.760000 0.122000 -0.300000
v -0.660000 0.122000 -0.300000
v -0.720000 0.240000 0.300000
v -0.720000 0.120000 0.300000
v -0.720000 0.240000 -0.300000
v -0.720000 0.120000 -0.300000
v -0.700000 0.240000 0.300000
v -0.700000 0.120000 0.300000
v -0.700000 0.240000 -0.300000
v -0.700000 0.120000 -0.300000
v -0.685000 0.240000 0.300000
v -0.735000 0.240000 0.300000
v -0.685000 0.240000 -0.300000
v -0.735000 0.240000 -0.300000
vn -1.0000 -0.0000 -0.0000
vn -0.0000 -0.0000 -1.0000
vn 1.0000 -0.0000 -0.0000
vn -0.0000 -0.0000 1.0000
vn -0.0000 -1.0000 -0.0000
vn -0.0000 1.0000 -0.0000
vt 0.017835 0.003363
vt 0.007914 0.487682
vt 0.352543 0.697844
vt 0.267835 0.003363
vt 0.257914 0.487682
vt 0.234910 0.061056
vt 0.017835 0.253363
vt 0.742086 0.244395
vt 0.352543 0.565608
vt 0.267835 0.253363
vt 0.992086 0.244395
vt 0.752590 0.061056
vt 0.752008 0.252256
vt 0.007914 0.237682
vt 0.484779 0.697844
vt 1.002008 0.252256
vt 0.257914 0.237682
vt 0.234910 0.499678
vt 0.742086 0.494395
vt 0.752008 0.002256
vt 0.484779 0.565608
vt 0.992086 0.494395
vt 1.002008 0.002256
vt 0.752590 0.499679
vt 1.007130 0.746220
vt 1.007130 0.782028
vt 0.017870 0.746220
vt 0.017870 0.782028
vt 0.993569 0.817501
vt 0.993569 0.766387
vt 0.007298 0.817501
vt 0.007298 0.766387
vt 0.993569 0.816660
vt 0.993569 0.765546
vt 0.007298 0.816660
vt 0.007298 0.765546
vt 0.995318 0.940338
vt 0.995318 0.957167
vt 0.006058 0.940338
vt 0.006058 0.957167
vt 1.007130 0.746220
vt 1.007130 0.782028
vt 0.017870 0.746220
vt 0.017870 0.782028
vt 0.993569 0.817501
vt 0.993569 0.766387
vt 0.007298 0.817501
vt 0.007298 0.766387
vt 0.993569 0.816660
vt 0.993569 0.765546
vt 0.007298 0.816660
vt 0.007298 0.765546
vt 0.995318 0.940338
vt 0.995318 0.957167
vt 0.006058 0.940338
vt 0.006058 0.957167
s 0
f 1/1/1 2/4/1 4/10/1 3/7/1
f 3/8/2 4/11/2 8/22/2 7/19/2
f 7/20/3 8/23/3 6/16/3 5/13/3
f 5/14/4 6/17/4 2/5/4 1/2/4
f 3/9/5 7/21/5 5/15/5 1/3/5
f 8/24/6 4/12/6 2/6/6 6/18/6
f 9/25/6 10/26/6 12/28/6 11/27/6
f 13/29/1 15/31/1 16/32/1 14/30/1
f 17/33/3 18/34/3 20/36/3 19/35/3
f 21/37/6 23/39/6 24/40/6 22/38/6
f 25/41/6 26/42/6 28/44/6 27/43/6
f 29/45/1 31/47/1 32/48/1 30/46/1
f 33/49/3 34/50/3 36/52/3 35/51/3
f 37/53/6 39/55/6 40/56/6 38/54/6
